# xmcd CD database file
#
# Track frame offsets:
#	150
#	19528
#	39569
#	62233
#	80773
#	103472
#	138519
#	155558
#	175942
#	192748
#	210433
#	232059
#	252453
#	266912
#	293503
#	311044
#	325214
#	332364
#
# Disc length: 4687 seconds
#
# Revision: 1
# Processed by: cddbd v1.5.2PL0 Copyright (c) Steve Scherf et al.
# Submitted via: CDex 1.70beta2
#
DISCID=14124d12
DTITLE=Juice Newton - Every Road Leads Back to You CD 1v2
DYEAR=2001
DGENRE=Country
TTITLE0=Your Heart Is Showing
TTITLE1=Love Sail Away
TTITLE2=Medley - I'm So Hurt - Break It to Me Gently
TTITLE3=The Trouble with Angels
TTITLE4=Red Blooded American Girl
TTITLE5=Medley - You Make Me Want to Make You Mine - Cheap Love - Loves's Been a Little Hard on Me
TTITLE6=Every Road Leads Back to You
TTITLE7=Shot Full of Love
TTITLE8=Ride'm Cowboy
TTITLE9=This Old Flame
TTITLE10=The Sweetest Thing (I've Ever Known)
TTITLE11=Night Time Without You (After Midnight)
TTITLE12=They Never Made It to Memphis
TTITLE13=Angel Of The Morning
TTITLE14=Queen Of Hearts
TTITLE15=Back To You
TTITLE16=It' Late
TTITLE17=Love Is Still Alive And Well
EXTD=YEAR: 2001
EXTT0=
EXTT1=
EXTT2=
EXTT3=
EXTT4=
EXTT5=
EXTT6=
EXTT7=
EXTT8=
EXTT9=
EXTT10=
EXTT11=
EXTT12=
EXTT13=
EXTT14=
EXTT15=
EXTT16=
EXTT17=
PLAYORDER=
